<?xml version="1.0" standalone="no"?>
<!DOCTYPE svg PUBLIC "-//W3C//DTD SVG 20010904//EN"
 "http://www.w3.org/TR/2001/REC-SVG-20010904/DTD/svg10.dtd">
<svg version="1.0" xmlns="http://www.w3.org/2000/svg"
 width="2880.000000pt" height="3349.000000pt" viewBox="0 0 2880.000000 3349.000000"
 preserveAspectRatio="xMidYMid meet">

<g transform="translate(0.000000,3349.000000) scale(0.100000,-0.100000)"
fill="#000000" stroke="none">
<path d="M17320 33420 c-137 -68 -287 -113 -367 -111 -71 2 -98 -11 -237 -115
l-119 -88 -101 -6 c-160 -11 -191 -38 -227 -202 -24 -112 -45 -162 -90 -212
-64 -74 -129 -102 -261 -116 -141 -15 -162 -35 -139 -132 20 -86 14 -158 -16
-219 -37 -71 -93 -112 -198 -144 -131 -40 -173 -99 -145 -200 9 -34 10 -59 0
-115 -18 -107 -1 -189 56 -272 l25 -36 -25 -40 c-89 -141 -93 -340 -10 -504
32 -64 30 -89 -12 -148 -57 -80 -76 -140 -82 -262 -4 -95 -2 -111 17 -152 26
-54 72 -85 139 -95 l47 -6 -3 -61 c-5 -74 12 -138 45 -183 39 -51 160 -105
246 -109 62 -4 73 -2 116 26 l48 30 6 -65 c11 -116 77 -224 156 -255 14 -5 49
-10 77 -10 50 0 52 0 62 -36 17 -57 69 -112 133 -141 49 -22 66 -38 119 -111
133 -180 286 -298 410 -315 l52 -7 -7 -37 c-10 -58 -49 -134 -110 -218 -129
-176 -183 -212 -391 -263 l-41 -10 63 -117 c78 -144 176 -390 288 -719 123
-364 207 -550 361 -800 166 -268 258 -367 464 -494 132 -82 225 -79 289 9 l29
40 -14 113 c-48 400 -184 818 -380 1171 -55 99 -64 122 -55 141 19 43 132 183
234 290 l103 109 90 -114 c120 -152 273 -309 332 -342 143 -77 260 -44 345 99
32 53 33 54 80 54 26 0 58 5 72 11 31 14 56 65 56 112 0 34 1 35 47 42 34 5
56 16 81 41 34 34 35 35 29 103 l-6 69 42 6 c37 6 177 63 177 73 0 2 -13 64
-30 138 -34 155 -36 190 -14 266 26 85 60 145 112 191 89 81 124 123 162 198
73 144 129 339 145 505 6 55 15 82 42 126 53 88 76 169 77 277 1 88 2 93 21
87 97 -29 312 -65 385 -65 138 1 201 43 284 191 l42 74 54 5 c64 6 132 42 179
95 71 81 120 224 121 348 0 57 1 58 59 115 48 48 63 69 76 117 34 114 1 201
-118 316 l-78 76 46 84 c68 123 88 189 83 274 -11 161 -121 269 -303 294 -38
6 -71 15 -73 21 -11 31 -73 98 -117 125 -44 27 -56 30 -137 30 -75 0 -88 2
-84 15 3 8 12 33 20 55 29 75 15 139 -45 215 -48 61 -97 93 -175 116 -73 20
-76 23 -128 104 -49 76 -85 105 -143 118 -38 9 -115 2 -165 -13 -15 -5 -31 3
-62 32 -97 94 -162 124 -267 125 l-65 0 -12 43 c-16 62 -69 125 -131 157 -47
25 -64 28 -145 28 -90 0 -92 1 -151 40 -33 22 -82 47 -109 56 -64 22 -166 15
-224 -15 l-43 -22 -62 47 c-121 91 -214 115 -306 78 -38 -15 -49 -14 -191 10
-84 14 -187 26 -230 26 -74 0 -82 -2 -200 -60z"/>
<path d="M14480 31433 c-25 -1 -117 -7 -205 -13 -2039 -137 -4018 -965 -5585
-2338 -198 -174 -582 -552 -762 -751 -746 -824 -1338 -1761 -1762 -2789 -37
-90 -66 -165 -64 -167 2 -3 28 53 57 123 317 751 776 1509 1300 2146 369 450
858 936 1301 1292 1427 1149 3160 1824 4990 1943 425 28 920 23 1320 -14 85
-8 158 -15 161 -15 4 0 9 55 11 123 4 96 11 137 30 193 l25 72 -23 68 c-13 38
-24 84 -24 102 l0 32 -362 -2 c-200 -1 -383 -3 -408 -5z"/>
<path d="M13850 30444 c-41 -2 -149 -8 -240 -14 -1904 -122 -3686 -878 -5112
-2168 -184 -168 -501 -489 -657 -667 -1121 -1279 -1825 -2844 -2031 -4515 -71
-576 -80 -1299 -24 -1865 136 -1377 586 -2645 1352 -3810 l124 -190 22 39
c145 258 363 504 604 680 l79 58 -64 111 c-86 151 -259 493 -339 674 -699
1573 -858 3341 -453 5023 99 413 246 854 416 1250 47 109 49 118 43 175 -7 59
9 266 30 415 52 346 168 785 241 906 68 112 216 228 372 291 33 13 154 44 269
68 201 43 210 46 236 77 179 217 508 559 727 758 257 234 580 491 835 665 63
43 135 97 160 121 135 127 462 361 665 476 189 107 468 237 585 273 32 9 107
19 180 22 117 5 134 8 265 54 701 245 1409 385 2170 429 306 18 786 11 1066
-16 l67 -6 -17 61 c-13 48 -23 66 -46 80 -46 28 -114 107 -135 156 -29 68 -43
157 -38 245 4 75 3 81 -16 85 -29 6 -303 33 -471 45 -145 11 -733 20 -865 14z"/>
<path d="M20264 29803 c-3 -15 -28 -84 -54 -153 -26 -70 -57 -174 -68 -236
-26 -134 -87 -323 -146 -448 l-43 -93 141 -120 c301 -257 643 -598 916 -913
45 -52 88 -101 95 -109 11 -12 19 -10 50 9 116 71 220 102 349 101 158 -1 236
-30 506 -193 217 -131 417 -267 472 -320 59 -58 110 -135 143 -218 14 -36 51
-99 81 -140 103 -138 144 -247 144 -385 0 -192 -180 -689 -359 -994 l-31 -52
70 -175 c352 -872 548 -1714 627 -2689 31 -389 23 -1068 -18 -1485 -176 -1793
-872 -3459 -2020 -4830 -2032 -2430 -5162 -3585 -8285 -3060 -1383 233 -2674
786 -3812 1634 l-184 137 -76 -70 c-42 -38 -92 -85 -110 -104 l-33 -34 73 -64
c930 -819 2043 -1463 3218 -1861 724 -246 1483 -403 2250 -468 518 -43 1144
-41 1665 5 2024 182 3922 1003 5455 2361 183 162 523 497 690 679 1831 2002
2713 4641 2455 7345 -166 1732 -805 3384 -1847 4771 -284 378 -500 629 -833
968 -451 459 -850 795 -1392 1174 l-82 58 -7 -28z"/>
<path d="M13181 28759 c-118 -4 -314 -16 -435 -26 -172 -14 -295 -17 -557 -14
l-337 3 -98 -42 c-315 -134 -619 -323 -889 -551 -72 -61 -1034 -1036 -1449
-1469 l-168 -175 -176 -42 c-98 -23 -276 -63 -397 -88 -215 -45 -300 -72 -329
-104 -8 -9 -33 -78 -55 -154 -64 -220 -122 -524 -137 -729 l-7 -88 337 0 c332
0 336 0 336 -20 0 -12 -9 -33 -20 -48 -24 -32 -110 -239 -110 -265 0 -10 6
-20 14 -23 28 -11 342 179 531 321 208 156 191 132 316 444 82 208 117 283
141 309 60 63 294 269 419 369 295 235 495 365 961 624 809 450 1035 589 1196
734 74 67 98 68 292 12 197 -57 429 -109 640 -142 161 -26 185 -27 965 -40
440 -7 811 -17 825 -20 68 -18 120 -37 120 -44 0 -13 -379 -51 -509 -51 l-33
0 6 -42 c9 -70 36 -440 44 -633 l9 -179 54 -49 c197 -176 526 -329 769 -357
146 -17 382 -8 485 19 317 83 509 306 586 681 18 84 35 390 38 683 1 27 5 46
9 43 40 -24 68 -595 42 -857 -22 -227 -125 -436 -296 -599 -71 -68 -89 -79
-179 -114 -131 -50 -295 -91 -425 -107 -357 -41 -733 85 -1047 351 -66 55 -73
59 -73 37 0 -13 -7 -149 -16 -303 -18 -317 -22 -734 -8 -779 10 -27 24 -35
165 -91 288 -114 467 -172 1191 -389 690 -207 730 -220 873 -290 83 -40 179
-92 214 -115 l64 -41 48 47 49 48 142 13 c166 14 271 34 383 70 355 115 554
351 610 723 26 169 16 440 -22 570 -24 87 -74 210 -83 210 -5 0 -16 -12 -24
-27 -21 -40 -94 -107 -146 -134 -38 -20 -60 -24 -140 -24 -85 0 -103 4 -174
33 -177 73 -342 196 -458 341 -85 106 -210 317 -308 516 -85 174 -205 509
-405 1135 -120 373 -135 412 -200 510 -193 291 -512 410 -1065 397 -242 -5
-343 -20 -515 -74 -148 -46 -379 -106 -553 -143 -295 -62 -693 -116 -747 -101
-29 8 -28 8 30 25 137 39 700 209 825 249 l135 44 -85 7 c-284 23 -792 30
-1189 15z m-873 -231 c56 -6 101 -13 99 -15 -2 -2 -58 -17 -125 -33 -312 -76
-607 -200 -884 -373 -232 -144 -429 -311 -820 -696 -211 -207 -255 -229 -121
-62 253 317 550 607 854 836 235 177 322 230 549 332 l75 34 135 -6 c74 -3
181 -10 238 -17z"/>
<path d="M17915 27339 c262 -521 467 -1138 590 -1770 34 -177 35 -190 25 -279
-30 -263 -107 -469 -244 -655 -69 -93 -190 -213 -277 -276 -117 -84 -116 -57
-7 -210 198 -279 644 -825 778 -953 181 -171 217 -190 313 -162 65 19 327 148
456 223 299 176 605 414 821 639 208 217 690 839 1000 1289 110 161 224 285
428 468 127 114 170 174 271 382 75 154 124 279 167 428 l34 119 -45 62 c-25
33 -70 109 -101 168 l-55 108 -105 70 c-169 114 -436 270 -461 270 -14 0 -51
-24 -92 -57 -77 -66 -188 -124 -282 -149 -35 -10 -71 -24 -80 -31 -19 -16 -32
-76 -55 -258 -21 -164 -22 -552 -2 -706 l14 -107 -61 -108 c-216 -387 -495
-703 -811 -920 -172 -118 -475 -312 -676 -434 -134 -81 -231 -165 -295 -254
l-21 -30 -4 255 -5 254 -41 155 c-73 283 -197 573 -342 803 l-62 98 12 120
c17 159 8 412 -20 542 -44 206 -128 406 -248 584 -120 179 -185 241 -350 338
-60 35 -195 95 -213 95 -5 0 16 -50 46 -111z"/>
<path d="M6086 25345 c-9 -26 -7 -32 5 -12 6 10 9 21 6 23 -2 3 -7 -2 -11 -11z"/>
<path d="M6066 25295 c-9 -26 -7 -32 5 -12 6 10 9 21 6 23 -2 3 -7 -2 -11 -11z"/>
<path d="M14556 25168 c-2 -7 -20 -88 -40 -180 -37 -171 -121 -477 -154 -565
-51 -134 -208 -297 -356 -368 -118 -57 -182 -72 -341 -80 -221 -10 -525 -35
-635 -51 -678 -98 -1236 -561 -1445 -1198 -66 -201 -80 -302 -80 -566 1 -218
3 -244 28 -364 73 -342 203 -621 399 -853 144 -171 15 -88 -144 92 -227 257
-381 600 -414 918 -4 37 -9 66 -11 63 -3 -2 -9 -53 -14 -113 -11 -123 -37
-279 -52 -308 -5 -10 -157 -209 -336 -440 -330 -426 -441 -578 -564 -773 -70
-112 -182 -322 -216 -408 -10 -28 -67 -153 -126 -279 -173 -370 -202 -450
-259 -720 -36 -168 -114 -462 -183 -685 -36 -118 -71 -198 -95 -217 -7 -6
-139 -59 -293 -118 -534 -205 -727 -300 -977 -475 -122 -86 -298 -262 -375
-375 -62 -91 -182 -315 -540 -1005 -335 -644 -590 -1149 -637 -1261 -66 -158
-123 -343 -136 -441 -21 -154 17 -310 108 -442 56 -82 91 -111 124 -103 13 4
121 109 248 244 762 804 1647 1654 2462 2362 l236 206 193 105 c258 140 598
337 628 364 33 29 270 300 418 477 l121 145 158 94 c953 566 1679 1317 2212
2290 l90 164 -87 56 c-316 206 -570 498 -716 826 -19 43 -30 72 -23 62 7 -9
32 -43 55 -75 62 -85 278 -281 453 -410 419 -309 902 -515 1401 -597 607 -99
1185 -97 1819 9 242 40 617 95 645 94 11 0 -23 -13 -75 -28 -131 -37 -226 -75
-352 -137 -172 -86 -232 -127 -387 -268 -517 -469 -1159 -971 -1749 -1365
-209 -140 -350 -306 -416 -490 -30 -82 -31 -93 -30 -241 0 -142 2 -162 28
-239 49 -147 88 -222 141 -269 26 -23 54 -42 62 -42 8 0 58 31 111 69 229 161
559 349 807 459 50 22 241 106 425 187 400 176 1090 489 1505 683 831 387
1823 870 1927 938 92 59 195 157 269 256 62 84 104 181 147 338 23 86 26 113
26 275 0 167 -2 186 -27 268 -70 227 -233 452 -435 600 -606 444 -1331 804
-2017 1001 -929 268 -1779 400 -2845 442 l-175 7 85 24 c136 37 317 72 466 89
178 21 705 15 918 -11 l138 -16 16 22 c8 12 50 66 92 119 132 165 255 285 415
405 184 137 296 234 440 379 110 110 295 320 295 334 0 4 -51 27 -113 51
-1102 433 -1571 654 -2078 976 -82 52 -151 95 -154 95 -3 0 -7 -6 -9 -12z
m-1301 -1388 c371 -43 688 -184 959 -425 146 -131 270 -287 219 -278 -6 2 -51
29 -100 62 -336 224 -698 362 -1123 428 -89 14 -176 18 -382 18 -300 0 -292
-5 -113 70 154 65 369 132 425 134 14 0 66 -4 115 -9z m-2052 -2973 c-70 -137
-406 -759 -587 -1087 -218 -395 -528 -1028 -736 -1503 -24 -53 -44 -96 -46
-94 -2 1 10 63 26 137 206 971 644 1843 1295 2578 103 117 118 107 48 -31z
m-3430 -4480 c-163 -327 -493 -969 -504 -982 -21 -23 72 257 136 412 49 117
134 271 338 620 101 172 133 220 143 212 10 -8 -14 -65 -113 -262z"/>
<path d="M21973 25022 l-21 -28 45 -110 c260 -642 444 -1372 517 -2049 23
-210 25 -219 20 -105 -15 324 -107 897 -214 1330 -89 361 -287 977 -317 987
-5 2 -18 -9 -30 -25z"/>
<path d="M22543 22565 c0 -33 2 -45 4 -27 2 18 2 45 0 60 -2 15 -4 0 -4 -33z"/>
<path d="M22553 22395 c0 -33 2 -45 4 -27 2 18 2 45 0 60 -2 15 -4 0 -4 -33z"/>
<path d="M5472 21435 c0 -16 2 -22 5 -12 2 9 2 23 0 30 -3 6 -5 -1 -5 -18z"/>
<path d="M5483 21285 c0 -22 2 -30 4 -17 2 12 2 30 0 40 -3 9 -5 -1 -4 -23z"/>
<path d="M5493 21165 c0 -27 2 -38 4 -22 2 15 2 37 0 50 -2 12 -4 0 -4 -28z"/>
<path d="M5506 21020 c3 -47 16 -173 30 -280 175 -1392 666 -2748 1421 -3923
50 -77 50 -77 65 -55 22 33 68 126 68 136 0 5 -64 105 -143 223 -228 342 -374
593 -552 949 -452 903 -731 1817 -870 2850 -15 113 -23 152 -19 100z"/>
<path d="M22066 19205 c-9 -26 -7 -32 5 -12 6 10 9 21 6 23 -2 3 -7 -2 -11
-11z"/>
<path d="M21975 18972 c-503 -1222 -1316 -2305 -2355 -3137 -781 -625 -1658
-1088 -2610 -1378 -525 -160 -1049 -261 -1625 -312 -246 -22 -818 -31 -1075
-16 -1631 93 -3131 656 -4407 1652 -84 66 -155 119 -159 119 -10 0 -636 -564
-641 -579 -5 -13 380 -281 618 -429 2517 -1569 5737 -1683 8351 -297 1681 891
3009 2312 3773 4035 83 186 208 500 203 506 -2 2 -35 -72 -73 -164z"/>
<path d="M13012 18845 c-87 -81 -148 -168 -186 -261 -71 -174 -141 -706 -134
-1014 l3 -135 61 95 c91 141 107 179 154 365 67 269 172 580 220 654 51 78
127 155 203 206 32 21 56 43 54 49 -7 21 -101 77 -164 96 -109 34 -120 31
-211 -55z"/>
<path d="M13412 18638 c-125 -64 -229 -184 -271 -311 -12 -34 -30 -116 -41
-182 -38 -224 -111 -466 -198 -658 -17 -37 -64 -113 -105 -170 -212 -289 -390
-655 -418 -857 -21 -143 -18 -516 5 -660 35 -225 94 -426 149 -508 57 -85 301
-90 447 -10 50 27 246 306 395 563 32 55 67 111 79 123 23 26 87 62 109 62 7
0 40 33 73 72 106 131 276 299 323 321 24 11 55 37 69 57 19 26 52 48 121 82
167 82 359 258 375 344 17 90 -34 167 -119 179 -28 4 -80 14 -117 22 -61 13
-72 20 -116 68 -104 113 -184 269 -204 392 -15 98 -4 300 22 401 42 159 111
300 210 423 28 34 50 66 50 70 0 14 -240 128 -322 153 -119 36 -246 56 -358
56 -89 0 -102 -3 -158 -32z m-783 -2992 c6 -55 9 -101 7 -103 -5 -6 -44 159
-57 242 -11 76 -14 318 -4 381 29 186 30 184 36 -126 4 -162 12 -340 18 -394z"/>
<path d="M5613 15451 c-68 -32 -121 -94 -174 -205 -26 -55 -60 -141 -74 -191
-53 -180 -88 -520 -83 -785 l3 -155 49 65 c72 97 110 181 145 320 74 292 161
544 217 631 42 63 112 137 184 190 32 24 34 29 25 55 -7 21 -26 37 -69 59 -77
38 -162 44 -223 16z"/>
<path d="M5975 15241 c-127 -73 -233 -207 -278 -352 -14 -46 -42 -158 -62
-248 -20 -90 -54 -228 -76 -307 -35 -129 -46 -153 -104 -243 -181 -279 -380
-669 -408 -796 -39 -184 -50 -289 -50 -485 0 -221 14 -337 69 -550 42 -162 69
-224 124 -284 75 -81 99 -91 225 -91 96 0 116 3 160 24 102 50 144 108 335
464 154 288 179 330 216 357 23 16 71 62 106 101 213 240 358 372 464 425 89
44 174 112 236 189 67 82 88 130 88 197 0 68 -21 99 -85 123 -37 15 -54 16
-104 7 -88 -16 -119 -4 -205 81 -56 56 -83 92 -114 157 -62 127 -76 192 -68
325 16 258 87 482 223 708 19 32 34 60 32 62 -15 14 -206 99 -259 115 -101 30
-234 50 -329 50 -76 0 -92 -3 -136 -29z"/>
<path d="M2810 11159 c-116 -12 -402 -77 -535 -120 -238 -78 -526 -240 -765
-428 -133 -106 -389 -363 -504 -506 -166 -208 -349 -501 -458 -733 -170 -363
-307 -834 -349 -1201 -27 -236 5 -536 81 -763 124 -370 411 -656 850 -846 304
-132 608 -209 1250 -318 649 -109 959 -180 1127 -255 145 -65 283 -182 324
-273 59 -135 36 -315 -61 -465 -180 -278 -726 -628 -1178 -756 -749 -210
-1468 -103 -1869 278 -102 97 -164 182 -228 312 -77 158 -118 296 -119 411 -1
87 1 95 37 163 26 51 37 85 37 116 0 52 -17 62 -78 46 -128 -35 -241 -215
-314 -500 -86 -336 -35 -642 155 -928 79 -121 159 -212 263 -304 319 -281 734
-463 1221 -535 136 -21 479 -23 613 -5 416 56 728 184 1066 437 412 308 688
722 769 1154 25 130 25 370 0 500 -68 360 -264 646 -590 861 -174 115 -374
206 -777 353 -304 111 -408 153 -578 237 -504 248 -762 550 -885 1036 -42 170
-58 326 -58 568 1 441 45 750 155 1082 111 337 294 614 517 784 83 63 262 151
361 178 421 113 830 -14 1213 -379 399 -380 699 -986 755 -1529 17 -168 -16
-426 -79 -615 -126 -377 -417 -656 -683 -656 -199 1 -354 117 -473 355 -57
113 -77 141 -114 161 -39 20 -77 3 -101 -46 -34 -66 -20 -137 54 -287 105
-212 292 -370 508 -429 100 -28 325 -25 450 6 587 143 1096 668 1213 1250 36
178 30 469 -14 699 -140 724 -659 1409 -1304 1721 -293 141 -610 201 -905 169z"/>
<path d="M14940 11159 c-116 -12 -402 -77 -535 -120 -238 -78 -526 -240 -765
-428 -133 -106 -389 -363 -504 -506 -166 -208 -349 -501 -458 -733 -170 -363
-307 -834 -349 -1201 -27 -236 5 -536 81 -763 124 -370 411 -656 850 -846 304
-132 608 -209 1250 -318 649 -109 959 -180 1127 -255 145 -65 283 -182 324
-273 59 -135 36 -315 -61 -465 -180 -278 -726 -628 -1178 -756 -749 -210
-1468 -103 -1869 278 -102 97 -164 182 -228 312 -77 158 -118 296 -119 411 -1
87 1 95 37 163 26 51 37 85 37 116 0 52 -17 62 -78 46 -128 -35 -241 -215
-314 -500 -86 -336 -35 -642 155 -928 79 -121 159 -212 263 -304 319 -281 734
-463 1221 -535 136 -21 479 -23 613 -5 416 56 728 184 1066 437 412 308 688
722 769 1154 25 130 25 370 0 500 -68 360 -264 646 -590 861 -174 115 -374
206 -777 353 -304 111 -408 153 -578 237 -504 248 -762 550 -885 1036 -42 170
-58 326 -58 568 1 441 45 750 155 1082 111 337 294 614 517 784 83 63 262 151
361 178 421 113 830 -14 1213 -379 399 -380 699 -986 755 -1529 17 -168 -16
-426 -79 -615 -126 -377 -417 -656 -683 -656 -199 1 -354 117 -473 355 -57
113 -77 141 -114 161 -39 20 -77 3 -101 -46 -34 -66 -20 -137 54 -287 105
-212 292 -370 508 -429 100 -28 325 -25 450 6 587 143 1096 668 1213 1250 36
178 30 469 -14 699 -140 724 -659 1409 -1304 1721 -293 141 -610 201 -905 169z"/>
<path d="M5587 10314 c-45 -24 -49 -50 -30 -197 l17 -132 -27 -160 c-33 -194
-99 -489 -297 -1335 -374 -1593 -443 -1979 -411 -2289 19 -183 69 -321 150
-412 72 -82 212 -139 341 -139 88 0 104 30 75 153 -60 261 -19 639 117 1057
37 114 56 150 220 424 453 755 756 1151 953 1242 85 40 115 29 115 -41 0 -61
-40 -187 -167 -530 -289 -777 -398 -1125 -459 -1470 -18 -105 -18 -340 1 -430
51 -242 225 -365 497 -353 82 3 102 8 168 40 186 90 376 286 597 618 77 115
223 357 269 445 16 30 31 55 34 55 3 0 4 -62 2 -137 -8 -317 48 -593 159 -790
66 -117 182 -229 290 -281 127 -61 212 -76 388 -69 178 7 298 35 447 106 355
170 604 450 954 1076 211 377 480 898 480 931 0 8 -14 29 -30 46 -27 27 -36
30 -72 25 -28 -4 -48 -14 -59 -29 -10 -13 -71 -126 -135 -253 -264 -519 -416
-785 -581 -1023 -211 -304 -421 -485 -620 -537 -122 -32 -230 -7 -315 73 -99
92 -134 227 -125 477 7 181 34 354 57 366 8 4 58 20 110 34 146 40 252 81 405
156 373 182 638 426 765 703 63 138 75 193 74 346 -2 165 -22 251 -93 395
-105 211 -262 346 -471 402 -93 25 -279 22 -382 -5 -436 -117 -850 -601 -1079
-1262 -40 -116 -87 -209 -257 -515 -183 -330 -390 -661 -510 -820 -61 -79
-157 -181 -206 -216 -104 -77 -165 10 -166 233 0 180 50 371 256 983 309 915
367 1234 268 1457 -107 236 -445 249 -737 28 -132 -100 -265 -249 -426 -475
-67 -95 -131 -194 -377 -576 -75 -118 -85 -182 122 731 240 1056 274 1220 281
1365 13 287 -100 466 -325 514 -77 16 -221 14 -255 -5z m4036 -1937 c43 -33
92 -126 118 -224 37 -139 7 -306 -82 -456 -95 -163 -340 -367 -579 -485 -120
-58 -326 -130 -400 -139 l-50 -6 29 84 c123 361 357 789 565 1036 169 201 302
264 399 190z"/>
<path d="M17727 10314 c-45 -24 -49 -50 -30 -197 l17 -132 -27 -160 c-33 -194
-99 -489 -297 -1335 -374 -1593 -443 -1979 -411 -2289 19 -183 69 -321 150
-412 72 -82 212 -139 341 -139 88 0 104 30 75 153 -60 261 -19 639 117 1057
37 114 56 150 220 424 453 755 756 1151 953 1242 85 40 115 29 115 -41 0 -61
-40 -187 -167 -530 -289 -777 -398 -1125 -459 -1470 -18 -105 -18 -340 1 -430
51 -242 225 -365 497 -353 82 3 102 8 168 40 41 20 104 59 140 86 126 95 309
306 435 500 22 33 43 61 46 62 3 0 9 -48 12 -107 10 -210 69 -373 171 -475
180 -180 505 -194 792 -33 227 127 478 388 702 728 46 71 85 127 87 125 1 -2
-2 -52 -8 -111 -21 -207 17 -476 88 -622 46 -97 93 -148 170 -186 63 -31 68
-32 162 -27 277 15 485 177 768 598 80 120 231 368 305 503 23 43 44 77 45 75
2 -2 -30 -169 -71 -373 -263 -1310 -371 -1935 -395 -2286 -25 -353 32 -710
142 -896 81 -137 200 -215 335 -217 100 -1 108 8 100 119 -3 44 -10 112 -15
150 -17 119 -13 394 9 590 45 389 88 640 225 1290 46 220 96 461 110 535 15
74 28 137 31 139 2 2 21 -12 42 -31 92 -83 243 -163 362 -191 313 -76 710 35
1186 331 371 231 737 563 1042 944 47 59 87 106 89 105 1 -2 -4 -57 -12 -122
-35 -295 -10 -605 69 -837 73 -214 205 -379 367 -456 127 -61 212 -76 388 -69
178 7 298 35 447 106 355 170 604 450 954 1076 211 377 480 898 480 931 0 8
-14 29 -30 46 -27 27 -36 30 -72 25 -28 -4 -48 -14 -59 -29 -10 -13 -71 -126
-135 -253 -255 -502 -356 -681 -530 -946 -233 -355 -454 -558 -671 -614 -122
-32 -230 -7 -315 73 -99 92 -134 227 -125 477 7 181 34 354 57 366 8 4 58 20
110 34 146 40 252 81 405 156 373 182 638 426 765 703 63 138 75 193 74 346
-2 165 -22 251 -93 395 -105 211 -262 346 -471 402 -93 25 -279 22 -382 -5
-401 -108 -763 -500 -1021 -1107 -122 -288 -363 -619 -691 -950 -139 -139
-357 -338 -364 -331 -2 2 19 48 46 102 153 306 270 700 318 1079 20 159 23
495 5 610 -41 263 -150 498 -278 601 -60 49 -142 92 -208 109 -75 19 -259 20
-340 0 -343 -81 -714 -423 -974 -897 -24 -43 -46 -80 -49 -82 -4 -2 -3 51 1
117 26 389 -52 616 -242 710 -62 30 -72 32 -172 32 -100 0 -109 -2 -133 -24
-40 -37 -49 -86 -37 -196 24 -214 11 -351 -80 -835 -55 -293 -55 -292 -191
-545 -289 -537 -555 -946 -731 -1127 -55 -57 -87 -62 -114 -21 -15 23 -18 51
-18 193 1 186 14 282 77 570 37 164 42 200 42 320 1 121 -1 140 -22 185 -29
63 -83 120 -145 152 -108 55 -299 82 -372 53 -54 -21 -65 -38 -65 -99 0 -84
-48 -214 -146 -396 -296 -550 -554 -883 -766 -989 -81 -41 -132 -51 -187 -36
-155 42 -196 255 -112 581 113 438 366 980 619 1329 89 123 272 310 356 365
251 163 498 84 602 -192 55 -145 68 -316 37 -459 l-17 -77 23 -18 c28 -23 78
-24 130 -3 39 15 40 17 62 107 18 71 23 121 23 217 0 429 -237 788 -574 871
-82 21 -277 16 -372 -10 -180 -47 -348 -135 -517 -271 -371 -299 -732 -842
-945 -1425 -43 -116 -40 -112 -164 -320 -224 -377 -402 -615 -526 -706 -104
-77 -165 10 -166 233 0 180 50 371 256 983 309 915 367 1234 268 1457 -107
236 -445 249 -737 28 -132 -100 -265 -249 -426 -475 -67 -95 -131 -194 -377
-576 -75 -118 -85 -182 122 731 240 1056 274 1220 281 1365 13 287 -100 466
-325 514 -77 16 -221 14 -255 -5z m6983 -1828 c171 -113 204 -506 94 -1104
-109 -592 -311 -1068 -549 -1290 -175 -163 -363 -194 -565 -92 -65 33 -187
141 -221 197 l-22 35 77 396 c80 408 109 519 196 736 154 386 326 699 498 907
178 215 367 298 492 215z m3233 -109 c43 -33 92 -126 118 -224 37 -139 7 -306
-82 -456 -95 -163 -340 -367 -579 -485 -120 -58 -326 -130 -400 -139 l-50 -6
29 84 c123 361 357 789 565 1036 169 201 302 264 399 190z"/>
</g>
</svg>
